<svg aria-hidden="true" style="width:0;height:0;position:absolute;overflow:hidden" xmlns="http://www.w3.org/2000/svg"><defs><symbol id="icon-ellipse" viewBox="0 0 32 32"><path d="M32 16c0 8.837-7.163 16-16 16S0 24.837 0 16 7.163 0 16 0s16 7.163 16 16z"/></symbol><symbol id="icon-burger-menu" viewBox="0 0 60 32"><path d="M2 0h56a2 2 0 1 1 0 4H2a2 2 0 1 1 0-4zM2 14h56a2 2 0 1 1 0 4H2a2 2 0 1 1 0-4zM2 28h56a2 2 0 1 1 0 4H2a2 2 0 1 1 0-4z"/></symbol><symbol id="icon-database" viewBox="0 0 32 32"><path d="M16 0C7.163 0 0 2.239 0 5v4c0 2.761 7.163 5 16 5s16-2.239 16-5V5c0-2.761-7.163-5-16-5z"/><path d="M16 17c-8.837 0-16-2.239-16-5v6c0 2.761 7.163 5 16 5s16-2.239 16-5v-6c0 2.761-7.163 5-16 5z"/><path d="M16 26c-8.837 0-16-2.239-16-5v6c0 2.761 7.163 5 16 5s16-2.239 16-5v-6c0 2.761-7.163 5-16 5z"/></symbol><symbol id="icon-trash-can" viewBox="0 0 32 32"><path d="M23.431 2.464C23.542 3.396 22.796 4 21.855 4H10.156c-.939 0-1.688-.603-1.576-1.541-1.772.375-5.913 1.545-5.913 3.355 0 .404.137.933.313 1.815 4.233 3.937 21.011 4.117 25.968.325.212-1.099.385-1.704.385-2.148 0-1.777-4.121-2.964-5.903-3.341zm4.15 9.196c-1.157 6.116-2.912 14.053-3.612 17.716C22.53 31.125 19.242 32 15.952 32s-6.58-.875-8.017-2.624C7.23 25.531 5.49 17.552 4.356 11.491c4.205 1.699 9.864 1.868 11.86 1.868 2.361 0 7.415-.201 11.365-1.699zM10.156 2.643c1.229 0 2.225-1.44 2.225-2.643h7.249c0 1.203.996 2.643 2.224 2.643H10.155z"/></symbol><symbol id="icon-study" viewBox="0 0 32 32"><path d="M28.956 19.081v-5.299h-.586c-2.482 0-4.695.43-6.517.982a34.973 34.973 0 0 0-.685-1.307 7.698 7.698 0 0 0 2.554-5.736 7.69 7.69 0 0 0-2.261-5.458 7.7 7.7 0 0 0-5.46-2.262c-2.13 0-4.064.865-5.459 2.262a7.696 7.696 0 0 0-2.261 5.458 7.704 7.704 0 0 0 2.554 5.736 33.6 33.6 0 0 0-.686 1.308 22.462 22.462 0 0 0-6.516-.982h-.586v5.299C1.277 19.115.6 20.574.6 22.371s.677 3.257 2.447 3.289v4.218l.581.02c.177.006 1.79.076 3.974.368s4.94.81 7.39 1.7l.097.035h1.826l.097-.035c2.528-.918 5.385-1.44 7.599-1.727a51.57 51.57 0 0 1 2.726-.279c.335-.025.6-.04.781-.051.09-.004.159-.008.205-.009l.051-.002h.017l.566-.02V25.66c1.77-.034 2.445-1.492 2.445-3.289s-.675-3.256-2.445-3.289zM3.109 24.489l-.063-.001c-.402-.004-1.275-.11-1.275-2.117s.872-2.114 1.275-2.117l.063-.001c.406 0 .786.116 1.109.315a2.114 2.114 0 0 1 0 3.607 2.109 2.109 0 0 1-1.109.315zm11.305-6.598v12.641c-2.381-.758-4.879-1.197-6.873-1.457a49.901 49.901 0 0 0-3.323-.32v-3.286a3.292 3.292 0 0 0 0-6.198v-4.308c3.054.087 5.656.846 7.524 1.608.993.403 1.779.807 2.311 1.108.137.078.258.148.361.211zm2.391 12.903c-.031.01-.063.022-.094.034H15.29a2.1 2.1 0 0 0-.095-.034v-12.52h1.61v12.52zM16 14.293c-1.786 0-3.4-.71-4.584-1.863l-.063-.061a6.571 6.571 0 0 1-1.484-2.279c1.154-.218 2.214-.653 3.159-1.189 1.594-.903 2.87-2.091 3.756-3.053.383-.416.691-.789.92-1.081.369.475.925 1.172 1.559 1.895a21.613 21.613 0 0 0 1.827 1.874c.312.279.625.529.934.736.105.069.209.132.313.191a6.563 6.563 0 0 1-1.69 2.907l-.064.062a6.546 6.546 0 0 1-4.584 1.862zm11.784 14.462c-.662.04-1.854.13-3.325.32-1.992.259-4.491.699-6.872 1.457h-.001V17.889h.001c.51-.306 1.447-.823 2.718-1.337 1.865-.754 4.449-1.503 7.478-1.588v4.308a3.291 3.291 0 0 0 0 6.198v3.286zm1.172-4.267-.064.001a2.12 2.12 0 0 1-2.119-2.119 2.12 2.12 0 0 1 2.183-2.118c.403.005 1.274.112 1.274 2.117s-.87 2.112-1.274 2.117z"/><path d="M14.243 10.065a.78.78 0 1 1-1.562 0 .78.78 0 0 1 1.562 0zm5.078 0a.78.78 0 1 1-1.562 0 .78.78 0 0 1 1.562 0z"/></symbol><symbol id="icon-rocket" viewBox="0 0 32 32"><path d="M22 2 12 12H6l-6 8s6.356-1.77 10.064-.94L0 32l13.184-10.254C15.022 25.954 12 32 12 32l8-6v-6l10-10 2-10-10 2z"/></symbol><symbol id="icon-search" viewBox="0 0 31 32"><path d="M12.8 23.68c2.272 0 4.478-.761 6.268-2.161l5.627 5.627 1.81-1.81-5.627-5.627a10.184 10.184 0 0 0 2.162-6.269c0-5.646-4.594-10.24-10.24-10.24S2.56 7.794 2.56 13.44 7.154 23.68 12.8 23.68zm0-17.92c4.236 0 7.68 3.444 7.68 7.68s-3.444 7.68-7.68 7.68-7.68-3.444-7.68-7.68 3.444-7.68 7.68-7.68z"/></symbol><symbol id="icon-close-cross" viewBox="0 0 32 32"><path d="m17.253 16 7.369-7.369a.886.886 0 0 0-.047-1.207.893.893 0 0 0-1.207-.047l-7.369 7.369L8.63 7.368A.892.892 0 0 0 7.368 8.63l7.378 7.369-7.378 7.369a.891.891 0 0 0-.249.999.881.881 0 0 0 .503.503.897.897 0 0 0 .712-.027.891.891 0 0 0 .288-.222L16 17.252l7.369 7.369a.886.886 0 0 0 1.207-.047.888.888 0 0 0 .047-1.207l-7.369-7.369z"/></symbol><symbol id="icon-toggle-true" viewBox="0 0 64 32"><path d="M16 .8h32C56.395.8 63.2 7.605 63.2 16S56.395 31.2 48 31.2H16C7.605 31.2.8 24.395.8 16S7.605.8 16 .8z"/><path d="M60.8 16c0 7.069-5.731 12.8-12.8 12.8S35.2 23.069 35.2 16c0-7.069 5.731-12.8 12.8-12.8S60.8 8.931 60.8 16z"/><path stroke-width="1.6" d="M16 .8h32C56.395.8 63.2 7.605 63.2 16S56.395 31.2 48 31.2H16C7.605 31.2.8 24.395.8 16S7.605.8 16 .8z"/></symbol><symbol id="icon-down-arrow" viewBox="0 0 32 32"><path d="m7.79 12.791 7.543 7.543 7.543-7.543-.943-.943-6.6 6.6-6.6-6.6-.943.943z"/></symbol><symbol id="icon-right-arrow" viewBox="0 0 32 32"><path d="m17.562 16-6.6-6.6 1.885-1.885L21.332 16l-8.485 8.485-1.885-1.885 6.6-6.6z"/></symbol><symbol id="icon-heart" viewBox="0 0 35 32"><path d="m17.684 32-2.564-2.302C6.013 21.554 0 16.183 0 9.591 0 4.22 4.28 0 9.726 0c3.077 0 6.03 1.413 7.958 3.645C19.612 1.413 22.565 0 25.642 0c5.447 0 9.726 4.22 9.726 9.591 0 6.592-6.013 11.963-15.12 20.124l-2.564 2.284z"/><path d="m17.684 28.632-2.076-1.817c-7.373-6.429-12.24-10.67-12.24-15.874 0-4.24 3.464-7.572 7.874-7.572 2.491 0 4.882 1.115 6.442 2.877 1.56-1.762 3.951-2.877 6.442-2.877 4.409 0 7.874 3.332 7.874 7.572 0 5.204-4.867 9.444-12.24 15.888l-2.076 1.803z"/></symbol><symbol id="icon-white-heart" viewBox="0 0 35 32"><path fill="#fd5103" style="fill:var(--color1,#fd5103)" d="m17.684 32-2.564-2.302C6.013 21.554 0 16.183 0 9.591 0 4.22 4.28 0 9.726 0c3.077 0 6.03 1.413 7.958 3.645C19.612 1.413 22.565 0 25.642 0c5.447 0 9.726 4.22 9.726 9.591 0 6.592-6.013 11.963-15.12 20.124l-2.564 2.284z"/><path fill="#fcfcfc" style="fill:var(--color2,#fcfcfc)" d="m17.684 28.632-2.076-1.817c-7.373-6.429-12.24-10.67-12.24-15.874 0-4.24 3.464-7.572 7.874-7.572 2.491 0 4.882 1.115 6.442 2.877 1.56-1.762 3.951-2.877 6.442-2.877 4.409 0 7.874 3.332 7.874 7.572 0 5.204-4.867 9.444-12.24 15.888l-2.076 1.803z"/></symbol><symbol id="icon-instagram" viewBox="0 0 32 32"><path d="M10.667 4A6.675 6.675 0 0 0 4 10.667v10.667a6.675 6.675 0 0 0 6.667 6.667h10.667a6.675 6.675 0 0 0 6.667-6.667V10.667A6.675 6.675 0 0 0 21.334 4H10.667zm0 2.667h10.667c2.205 0 4 1.795 4 4v10.667c0 2.205-1.795 4-4 4H10.667c-2.205 0-4-1.795-4-4V10.667c0-2.205 1.795-4 4-4zm12 1.333a1.333 1.333 0 0 0 0 2.666 1.333 1.333 0 0 0 0-2.666zM16 9.333c-3.676 0-6.667 2.991-6.667 6.667s2.991 6.667 6.667 6.667c3.676 0 6.667-2.991 6.667-6.667S19.676 9.333 16 9.333zM16 12c2.205 0 4 1.795 4 4s-1.795 4-4 4-4-1.795-4-4 1.795-4 4-4z"/></symbol><symbol id="icon-tiktok" viewBox="0 0 32 32"><path d="M8 4C5.807 4 4 5.807 4 8v16c0 2.193 1.807 4 4 4h16c2.193 0 4-1.807 4-4V8c0-2.193-1.807-4-4-4H8zm0 2.667h16c.753 0 1.333.58 1.333 1.333v16c0 .753-.58 1.333-1.333 1.333H8c-.753 0-1.333-.58-1.333-1.333V8c0-.753.58-1.333 1.333-1.333zm8 2.666v9.333c0 .753-.58 1.333-1.333 1.333s-1.333-.58-1.333-1.333.58-1.333 1.333-1.333v-2.667c-2.193 0-4 1.807-4 4s1.807 4 4 4 4-1.807 4-4v-5.023c.822.585 1.679 1.023 2.667 1.023v-2.667c-.063 0-.983-.292-1.625-.852s-1.042-1.262-1.042-1.815H16z"/></symbol><symbol id="icon-twitter" viewBox="0 0 32 32"><path d="M29.333 5.332c-1.04.617-3.127 1.459-4.353 1.701-.036.009-.065.021-.1.031a5.98 5.98 0 0 0-4.213-1.732 6 6 0 0 0-6 6c0 .175-.015.496 0 .667-4.471 0-7.873-2.341-10.313-5.333-.265.667-.381 1.72-.381 2.709 0 1.868 1.46 3.703 3.733 4.84-.419.108-.88.185-1.36.185-.775 0-1.595-.204-2.345-.823v.068c0 2.611 2.771 4.388 5.235 4.883-.5.295-1.508.324-2 .324-.347 0-1.573-.159-1.901-.22.685 2.14 3.157 3.343 5.513 3.385-1.843 1.445-3.121 1.981-6.895 1.981H2.668c2.384 1.528 5.42 2.668 8.463 2.668 9.907 0 15.537-7.551 15.537-14.668 0-.115-.003-.355-.007-.596 0-.024.007-.047.007-.071 0-.036-.011-.071-.011-.107a24.661 24.661 0 0 0-.012-.439 10.95 10.95 0 0 0 2.689-2.788c-.967.429-2.004.717-3.093.848 1.112-.667 2.692-2.256 3.093-3.515zM24 11.999c0 5.44-3.943 11.199-11.288 11.924.995-.705 1.955-1.707 1.955-1.707s-4-3.549-4.3-8.187c1.38.421 2.817.636 4.3.636h2.667v-3.334a3.334 3.334 0 0 1 6.666.002v.665z"/></symbol><symbol id="icon-youtube" viewBox="0 0 32 32"><path d="M16 5.333s-8.339 0-10.419.557a3.339 3.339 0 0 0-2.357 2.357C2.667 10.327 2.667 16 2.667 16s0 5.673.557 7.753a3.339 3.339 0 0 0 2.357 2.357c2.08.557 10.419.557 10.419.557s8.339 0 10.419-.557a3.34 3.34 0 0 0 2.357-2.357c.557-2.08.557-7.753.557-7.753s0-5.673-.557-7.753a3.34 3.34 0 0 0-2.357-2.357C24.339 5.333 16 5.333 16 5.333zM16 8c3.843 0 8.654.178 9.729.466.225.06.41.245.471.471.321 1.197.466 4.852.466 7.063s-.145 5.864-.466 7.063a.678.678 0 0 1-.471.471C24.656 23.822 19.843 24 16 24c-3.841 0-8.653-.178-9.729-.466a.678.678 0 0 1-.471-.471c-.321-1.197-.466-4.852-.466-7.063s.145-5.865.466-7.065a.675.675 0 0 1 .471-.469C7.344 8.178 12.157 8 16 8zm-2.667 3.38v9.24l8-4.62-8-4.62z"/></symbol><symbol id="icon-arrow-left" viewBox="0 0 32 32"><path d="m14.545 16.667 6.788 6.741-1.939 1.926-8.727-8.667L19.394 8l1.939 1.926-6.788 6.741z"/></symbol><symbol id="icon-arrow-right" viewBox="0 0 32 32"><path d="m17.562 16-6.6-6.6 1.885-1.885L21.332 16l-8.485 8.485-1.885-1.885 6.6-6.6z"/></symbol></defs></svg>