<svg aria-hidden="true" style="position: absolute; width: 0; height: 0; overflow: hidden;" version="1.1" xmlns="http://www.w3.org/2000/svg" xmlns:xlink="http://www.w3.org/1999/xlink">
<defs>

<symbol id="icon-ellipse" viewBox="0 0 32 32">
<path d="M32 16c0 8.837-7.163 16-16 16s-16-7.163-16-16c0-8.837 7.163-16 16-16s16 7.163 16 16z"></path>
</symbol>

<symbol id="icon-burger-menu" viewBox="0 0 60 32">
<path d="M2 0h56c1.105 0 2 0.895 2 2s-0.895 2-2 2h-56c-1.105 0-2-0.895-2-2s0.895-2 2-2z"></path>
<path d="M2 14h56c1.105 0 2 0.895 2 2s-0.895 2-2 2h-56c-1.105 0-2-0.895-2-2s0.895-2 2-2z"></path>
<path d="M2 28h56c1.105 0 2 0.895 2 2s-0.895 2-2 2h-56c-1.105 0-2-0.895-2-2s0.895-2 2-2z"></path>
</symbol>

<symbol id="icon-search" viewBox="0 0 31 32">
<path d="M12.8 23.68c2.272-0 4.478-0.761 6.268-2.161l5.627 5.627 1.81-1.81-5.627-5.627c1.4-1.79 2.161-3.997 2.162-6.269 0-5.646-4.594-10.24-10.24-10.24s-10.24 4.594-10.24 10.24c0 5.646 4.594 10.24 10.24 10.24zM12.8 5.76c4.236 0 7.68 3.444 7.68 7.68s-3.444 7.68-7.68 7.68c-4.236 0-7.68-3.444-7.68-7.68s3.444-7.68 7.68-7.68z"></path>
</symbol>

<symbol id="icon-close-cross" viewBox="0 0 32 32">
<path d="M17.253 16l7.369-7.369c0.146-0.17 0.222-0.389 0.213-0.613s-0.101-0.436-0.26-0.594-0.37-0.251-0.594-0.26c-0.224-0.009-0.442 0.067-0.613 0.213l-7.369 7.369-7.369-7.378c-0.167-0.167-0.394-0.261-0.631-0.261s-0.464 0.094-0.631 0.261c-0.167 0.167-0.261 0.394-0.261 0.631s0.094 0.464 0.261 0.631l7.378 7.369-7.378 7.369c-0.093 0.080-0.169 0.178-0.222 0.288s-0.083 0.23-0.088 0.353 0.016 0.244 0.061 0.358c0.045 0.114 0.112 0.218 0.199 0.304s0.19 0.154 0.304 0.199 0.236 0.065 0.359 0.061c0.122-0.005 0.243-0.035 0.353-0.088s0.208-0.129 0.288-0.222l7.378-7.369 7.369 7.369c0.17 0.146 0.389 0.222 0.613 0.213s0.436-0.101 0.594-0.26 0.251-0.371 0.26-0.594c0.009-0.224-0.067-0.442-0.213-0.613l-7.369-7.369z"></path>
</symbol>

<symbol id="icon-toggle-true" viewBox="0 0 64 32">
<path d="M16 0.8h32c8.395 0 15.2 6.805 15.2 15.2s-6.805 15.2-15.2 15.2h-32c-8.395 0-15.2-6.805-15.2-15.2s6.805-15.2 15.2-15.2z"></path>
<path d="M60.8 16c0 7.069-5.731 12.8-12.8 12.8s-12.8-5.731-12.8-12.8c0-7.069 5.731-12.8 12.8-12.8s12.8 5.731 12.8 12.8z"></path>
<path stroke-linejoin="miter" stroke-linecap="butt" stroke-miterlimit="4" stroke-width="1.6" d="M16 0.8h32c8.395 0 15.2 6.805 15.2 15.2s-6.805 15.2-15.2 15.2h-32c-8.395 0-15.2-6.805-15.2-15.2s6.805-15.2 15.2-15.2z"></path>
</symbol>

<symbol id="icon-down-arrow" viewBox="0 0 32 32">
<path d="M7.79 12.791l7.543 7.543 7.543-7.543-0.943-0.943-6.6 6.6-6.6-6.6-0.943 0.943z"></path>
</symbol>

<symbol id="icon-right-arrow" viewBox="0 0 32 32">
<path d="M17.562 16l-6.6-6.6 1.885-1.885 8.485 8.485-8.485 8.485-1.885-1.885 6.6-6.6z"></path>
</symbol>

<symbol id="icon-heart" viewBox="0 0 35 32">
<path d="M17.684 32l-2.564-2.302c-9.107-8.144-15.12-13.515-15.12-20.107 0-5.371 4.28-9.591 9.726-9.591 3.077 0 6.030 1.413 7.958 3.645 1.928-2.232 4.881-3.645 7.958-3.645 5.447 0 9.726 4.22 9.726 9.591 0 6.592-6.013 11.963-15.12 20.124l-2.564 2.284z"></path>
<path d="M17.684 28.632l-2.076-1.817c-7.373-6.429-12.24-10.67-12.24-15.874 0-4.24 3.464-7.572 7.874-7.572 2.491 0 4.882 1.115 6.442 2.877 1.56-1.762 3.951-2.877 6.442-2.877 4.409 0 7.874 3.332 7.874 7.572 0 5.204-4.867 9.444-12.24 15.888l-2.076 1.803z"></path>
</symbol>

<symbol id="icon-white-heart" viewBox="0 0 35 32">
<path fill="#fd5103" style="fill: var(--color1, #fd5103)" d="M17.684 32l-2.564-2.302c-9.107-8.144-15.12-13.515-15.12-20.107 0-5.371 4.28-9.591 9.726-9.591 3.077 0 6.030 1.413 7.958 3.645 1.928-2.232 4.881-3.645 7.958-3.645 5.447 0 9.726 4.22 9.726 9.591 0 6.592-6.013 11.963-15.12 20.124l-2.564 2.284z"></path>
<path fill="#fcfcfc" style="fill: var(--color2, #fcfcfc)" d="M17.684 28.632l-2.076-1.817c-7.373-6.429-12.24-10.67-12.24-15.874 0-4.24 3.464-7.572 7.874-7.572 2.491 0 4.882 1.115 6.442 2.877 1.56-1.762 3.951-2.877 6.442-2.877 4.409 0 7.874 3.332 7.874 7.572 0 5.204-4.867 9.444-12.24 15.888l-2.076 1.803z"></path>
</symbol>

<symbol id="icon-instagram" viewBox="0 0 32 32">
<path d="M10.667 4A6.675 6.675 0 0 0 4 10.667v10.667a6.675 6.675 0 0 0 6.667 6.667h10.667a6.675 6.675 0 0 0 6.667-6.667V10.667A6.675 6.675 0 0 0 21.334 4H10.667zm0 2.667h10.667c2.205 0 4 1.795 4 4v10.667c0 2.205-1.795 4-4 4H10.667c-2.205 0-4-1.795-4-4V10.667c0-2.205 1.795-4 4-4zm12 1.333a1.333 1.333 0 0 0 0 2.666 1.333 1.333 0 0 0 0-2.666zM16 9.333c-3.676 0-6.667 2.991-6.667 6.667s2.991 6.667 6.667 6.667c3.676 0 6.667-2.991 6.667-6.667S19.676 9.333 16 9.333zM16 12c2.205 0 4 1.795 4 4s-1.795 4-4 4-4-1.795-4-4 1.795-4 4-4z"/>
</symbol>

<symbol id="icon-tiktok" viewBox="0 0 32 32">
<path d="M8 4C5.807 4 4 5.807 4 8v16c0 2.193 1.807 4 4 4h16c2.193 0 4-1.807 4-4V8c0-2.193-1.807-4-4-4H8zm0 2.667h16c.753 0 1.333.58 1.333 1.333v16c0 .753-.58 1.333-1.333 1.333H8c-.753 0-1.333-.58-1.333-1.333V8c0-.753.58-1.333 1.333-1.333zm8 2.666v9.333c0 .753-.58 1.333-1.333 1.333s-1.333-.58-1.333-1.333.58-1.333 1.333-1.333v-2.667c-2.193 0-4 1.807-4 4s1.807 4 4 4 4-1.807 4-4v-5.023c.822.585 1.679 1.023 2.667 1.023v-2.667c-.063 0-.983-.292-1.625-.852s-1.042-1.262-1.042-1.815H16z"/>
</symbol>

<symbol id="icon-twitter" viewBox="0 0 32 32">
<path d="M29.333 5.332c-1.04.617-3.127 1.459-4.353 1.701-.036.009-.065.021-.1.031a5.98 5.98 0 0 0-4.213-1.732 6 6 0 0 0-6 6c0 .175-.015.496 0 .667-4.471 0-7.873-2.341-10.313-5.333-.265.667-.381 1.72-.381 2.709 0 1.868 1.46 3.703 3.733 4.84-.419.108-.88.185-1.36.185-.775 0-1.595-.204-2.345-.823v.068c0 2.611 2.771 4.388 5.235 4.883-.5.295-1.508.324-2 .324-.347 0-1.573-.159-1.901-.22.685 2.14 3.157 3.343 5.513 3.385-1.843 1.445-3.121 1.981-6.895 1.981H2.668c2.384 1.528 5.42 2.668 8.463 2.668 9.907 0 15.537-7.551 15.537-14.668 0-.115-.003-.355-.007-.596 0-.024.007-.047.007-.071 0-.036-.011-.071-.011-.107a24.661 24.661 0 0 0-.012-.439 10.95 10.95 0 0 0 2.689-2.788c-.967.429-2.004.717-3.093.848 1.112-.667 2.692-2.256 3.093-3.515zM24 11.999c0 5.44-3.943 11.199-11.288 11.924.995-.705 1.955-1.707 1.955-1.707s-4-3.549-4.3-8.187c1.38.421 2.817.636 4.3.636h2.667v-3.334a3.334 3.334 0 0 1 6.666.002v.665z"/>
</symbol>

<symbol id="icon-youtube" viewBox="0 0 32 32">
<path d="M16 5.333s-8.339 0-10.419.557a3.339 3.339 0 0 0-2.357 2.357C2.667 10.327 2.667 16 2.667 16s0 5.673.557 7.753a3.339 3.339 0 0 0 2.357 2.357c2.08.557 10.419.557 10.419.557s8.339 0 10.419-.557a3.34 3.34 0 0 0 2.357-2.357c.557-2.08.557-7.753.557-7.753s0-5.673-.557-7.753a3.34 3.34 0 0 0-2.357-2.357C24.339 5.333 16 5.333 16 5.333zM16 8c3.843 0 8.654.178 9.729.466.225.06.41.245.471.471.321 1.197.466 4.852.466 7.063s-.145 5.864-.466 7.063a.678.678 0 0 1-.471.471C24.656 23.822 19.843 24 16 24c-3.841 0-8.653-.178-9.729-.466a.678.678 0 0 1-.471-.471c-.321-1.197-.466-4.852-.466-7.063s.145-5.865.466-7.065a.675.675 0 0 1 .471-.469C7.344 8.178 12.157 8 16 8zm-2.667 3.38v9.24l8-4.62-8-4.62z"/>
</symbol>

<symbol id="icon-arrow-right" viewBox="0 0 32 32">
<path d="M17.562 16l-6.6-6.6 1.885-1.885 8.485 8.485-8.485 8.485-1.885-1.885 6.6-6.6z"></path>
</symbol>

<symbol id="icon-arrow-left" viewBox="0 0 32 32">
<path d="M14.545 16.667l6.788 6.741-1.939 1.926-8.727-8.667 8.727-8.667 1.939 1.926-6.788 6.741z"></path>
</symbol>

</defs>
</svg>
